<svg width="366" height="568" viewBox="0 0 366 568" fill="none" xmlns="http://www.w3.org/2000/svg">
<mask id="path-1-inside-1_32_335" fill="white">
<path d="M81.5 542.795C81.5 557.268 93.2571 569.125 107.669 567.794C139.793 564.827 171.245 556.41 200.656 542.845C238.016 525.613 271.195 500.484 297.903 469.189C324.612 437.894 344.215 401.179 355.361 361.575C366.507 321.971 368.931 280.42 362.465 239.789C355.999 199.158 340.797 160.412 317.909 126.224C295.02 92.0361 264.988 63.2194 229.885 41.7609C194.781 20.3025 155.441 6.71295 114.578 1.92945C82.4088 -1.83624 49.8982 -0.0740599 18.4392 7.07685C4.32645 10.2848 -3.16919 25.2063 1.32327 38.9641C5.81573 52.722 20.5981 60.0764 34.7746 57.1627C58.963 52.1911 83.8464 51.1005 108.484 53.9845C141.82 57.8868 173.913 68.9729 202.549 86.4783C231.186 103.984 255.685 127.492 274.357 155.382C293.03 183.271 305.431 214.879 310.705 248.026C315.98 281.172 314.003 315.068 304.91 347.376C295.818 379.684 279.826 409.636 258.037 435.165C236.249 460.695 209.183 481.196 178.705 495.253C156.18 505.642 132.187 512.329 107.65 515.112C93.2693 516.742 81.5 528.322 81.5 542.795Z"/>
</mask>
<path d="M81.5 542.795C81.5 557.268 93.2571 569.125 107.669 567.794C139.793 564.827 171.245 556.41 200.656 542.845C238.016 525.613 271.195 500.484 297.903 469.189C324.612 437.894 344.215 401.179 355.361 361.575C366.507 321.971 368.931 280.42 362.465 239.789C355.999 199.158 340.797 160.412 317.909 126.224C295.02 92.0361 264.988 63.2194 229.885 41.7609C194.781 20.3025 155.441 6.71295 114.578 1.92945C82.4088 -1.83624 49.8982 -0.0740599 18.4392 7.07685C4.32645 10.2848 -3.16919 25.2063 1.32327 38.9641C5.81573 52.722 20.5981 60.0764 34.7746 57.1627C58.963 52.1911 83.8464 51.1005 108.484 53.9845C141.82 57.8868 173.913 68.9729 202.549 86.4783C231.186 103.984 255.685 127.492 274.357 155.382C293.03 183.271 305.431 214.879 310.705 248.026C315.98 281.172 314.003 315.068 304.91 347.376C295.818 379.684 279.826 409.636 258.037 435.165C236.249 460.695 209.183 481.196 178.705 495.253C156.18 505.642 132.187 512.329 107.65 515.112C93.2693 516.742 81.5 528.322 81.5 542.795Z" stroke="url(#paint0_linear_32_335)" stroke-width="74" mask="url(#path-1-inside-1_32_335)"/>
<defs>
<linearGradient id="paint0_linear_32_335" x1="103.324" y1="20.2694" x2="88.7419" y2="557.89" gradientUnits="userSpaceOnUse">
<stop stop-color="white" stop-opacity="0"/>
<stop offset="1" stop-color="#09A66D"/>
</linearGradient>
</defs>
</svg>
