<svg width="19" height="20" viewBox="0 0 19 20" fill="none" xmlns="http://www.w3.org/2000/svg">
<path d="M1.04256 0.65504C0.791465 0.948371 0.664729 1.32389 0.688184 1.70504V18.295C0.664729 18.6762 0.791465 19.0517 1.04256 19.345L1.09648 19.3975L10.6414 10.1125V9.89504L1.09648 0.602539L1.04256 0.65504Z" fill="url(#paint0_linear_15253_41)"/>
<path d="M13.7999 13.21L10.6414 10.1125V9.89504L13.7999 6.79004L13.8692 6.82754L17.6517 8.92004C18.7302 9.51254 18.7302 10.4875 17.6517 11.0875L13.8846 13.1725L13.7999 13.21Z" fill="url(#paint1_linear_15253_41)"/>
<path d="M13.8924 13.165L10.6414 10L1.0426 19.345C1.26244 19.5331 1.54287 19.6406 1.83545 19.6488C2.12803 19.657 2.41436 19.5655 2.64497 19.39L13.9001 13.165" fill="url(#paint2_linear_15253_41)"/>
<path d="M13.8923 6.83504L2.63716 0.610036C2.40655 0.434547 2.12022 0.343 1.82764 0.351217C1.53506 0.359433 1.25462 0.466898 1.03479 0.655037L10.6413 10L13.8923 6.83504Z" fill="url(#paint3_linear_15253_41)"/>
<path opacity="0.2" d="M13.7999 13.0975L2.63727 19.285C2.41486 19.4469 2.1446 19.5344 1.8669 19.5344C1.58919 19.5344 1.31894 19.4469 1.09653 19.285L1.0426 19.3375L1.09653 19.39C1.31844 19.5531 1.58888 19.6413 1.8669 19.6413C2.14492 19.6413 2.41536 19.5531 2.63727 19.39L13.8924 13.165L13.7999 13.0975Z" fill="black"/>
<path opacity="0.12" d="M1.04256 19.24C0.791465 18.9467 0.664729 18.5711 0.688184 18.19V18.3025C0.664729 18.6837 0.791465 19.0592 1.04256 19.3525L1.09648 19.3L1.04256 19.24ZM17.6517 10.975L13.7999 13.0975L13.8692 13.165L17.6517 11.08C17.8664 10.9818 18.0506 10.8303 18.1859 10.6407C18.3211 10.4511 18.4026 10.2301 18.4221 10C18.3788 10.209 18.2868 10.4056 18.1533 10.5746C18.0197 10.7437 17.8481 10.8806 17.6517 10.975Z" fill="black"/>
<path opacity="0.25" d="M2.63704 0.71471L17.6516 9.02471C17.848 9.11909 18.0195 9.25606 18.1531 9.42508C18.2866 9.5941 18.3786 9.79068 18.4219 9.99971C18.4024 9.76964 18.3209 9.54864 18.1857 9.35902C18.0504 9.1694 17.8662 9.01787 17.6516 8.91971L2.63704 0.609709C1.55852 0.0172086 0.680298 0.51221 0.680298 1.71221V1.82471C0.703409 0.617209 1.56622 0.12221 2.63704 0.71471Z" fill="white"/>
<defs>
<linearGradient id="paint0_linear_15253_41" x1="9.79396" y1="1.53254" x2="-2.78652" y2="14.4547" gradientUnits="userSpaceOnUse">
<stop stop-color="#00A0FF"/>
<stop offset="0.01" stop-color="#00A1FF"/>
<stop offset="0.26" stop-color="#00BEFF"/>
<stop offset="0.51" stop-color="#00D2FF"/>
<stop offset="0.76" stop-color="#00DFFF"/>
<stop offset="1" stop-color="#00E3FF"/>
</linearGradient>
<linearGradient id="paint1_linear_15253_41" x1="19.0615" y1="10" x2="0.426251" y2="10" gradientUnits="userSpaceOnUse">
<stop stop-color="#FFE000"/>
<stop offset="0.41" stop-color="#FFBD00"/>
<stop offset="0.78" stop-color="#FFA500"/>
<stop offset="1" stop-color="#FF9C00"/>
</linearGradient>
<linearGradient id="paint2_linear_15253_41" x1="12.1282" y1="11.725" x2="-4.93584" y2="29.2448" gradientUnits="userSpaceOnUse">
<stop stop-color="#FF3A44"/>
<stop offset="1" stop-color="#C31162"/>
</linearGradient>
<linearGradient id="paint3_linear_15253_41" x1="-1.37647" y1="-4.86496" x2="6.2408" y2="2.95919" gradientUnits="userSpaceOnUse">
<stop stop-color="#32A071"/>
<stop offset="0.07" stop-color="#2DA771"/>
<stop offset="0.48" stop-color="#15CF74"/>
<stop offset="0.8" stop-color="#06E775"/>
<stop offset="1" stop-color="#00F076"/>
</linearGradient>
</defs>
</svg>
